<svg xmlns="http://www.w3.org/2000/svg" viewBox="0 0 237.69 70.82"><defs><style>.cls-1{fill:#65b1bf;}.cls-2{isolation:isolate;}.cls-3{fill:#fff;}</style></defs><g id="Layer_2" data-name="Layer 2"><g id="Layer_1-2" data-name="Layer 1"><g id="Group_73" data-name="Group 73"><g id="Group_72" data-name="Group 72"><g id="Group_47" data-name="Group 47"><g id="Group_60" data-name="Group 60"><g id="Path_669" data-name="Path 669"><path class="cls-1" d="M38.68,70.82l-1.17,0c-2.62-.11-16-1.2-23.49-12.35A30.17,30.17,0,0,1,9.93,35.78c1.26-6.2,4.24-11.23,8.18-13.8a12.46,12.46,0,0,1,8.56-2.08l.16,0a12.55,12.55,0,0,1,8.61,18.42A12,12,0,0,1,28.09,44a2.5,2.5,0,1,1-1.28-4.83,7,7,0,0,0,4.29-3.27,7.46,7.46,0,0,0,.64-5.68,7.54,7.54,0,0,0-3.59-4.52,7.37,7.37,0,0,0-2.17-.8,7.6,7.6,0,0,0-5.09,1.28C18.06,28,15.81,32,14.83,36.78a25.48,25.48,0,0,0,3.34,18.89c6.11,9.14,17.35,10,19.54,10.13A26.49,26.49,0,0,0,55.11,60a13.56,13.56,0,0,1-4.21-9.4c-.14-3.41.91-6.3,2.88-7.93l.1-.07a7.72,7.72,0,0,1,7.93-.8c3.24,1.59,4,4.94,4.27,6a12.5,12.5,0,0,1-.94,7.83,13.08,13.08,0,0,1-1,1.93,8.42,8.42,0,0,0,1.18-.24,2.5,2.5,0,1,1,1.33,4.82,14.4,14.4,0,0,1-6.65.26A32.25,32.25,0,0,1,38.68,70.82ZM56.92,46.58a5.13,5.13,0,0,0-1,3.81,8.33,8.33,0,0,0,2.83,6.13,12.85,12.85,0,0,0,1.84-2.86.3.3,0,0,1,0-.1,7.46,7.46,0,0,0,.59-4.65c-.14-.57-.49-2.07-1.56-2.6A2.72,2.72,0,0,0,56.92,46.58Z"/></g><g id="Line_3" data-name="Line 3"><path class="cls-1" d="M11.81,45.6a2.49,2.49,0,0,1-2.5-2.5V2.5a2.5,2.5,0,0,1,5,0V43.1A2.5,2.5,0,0,1,11.81,45.6Z"/></g><g id="Line_4" data-name="Line 4"><path class="cls-1" d="M21.11,16.08H2.5a2.5,2.5,0,0,1,0-5H21.11a2.5,2.5,0,0,1,0,5Z"/></g></g></g><g id="theo_tan" data-name="theo tan" class="cls-2"><g class="cls-2"><path class="cls-3" d="M105.42,47.1A6.91,6.91,0,0,1,101,48.51c-4.07,0-6.38-2.24-6.38-6.31V31.14H91.21v-3h3.42v-4.4h3.64v4.4h5.78v3H98.27V42.05c0,2.16,1.14,3.38,3.16,3.38a4.59,4.59,0,0,0,2.85-1Z"/><path class="cls-3" d="M127,36.69V48.28h-3.65V37.11c0-4-2-5.89-5.43-5.89-3.88,0-6.39,2.32-6.39,6.69V48.28h-3.64V20.09h3.64V31a8.73,8.73,0,0,1,7.11-3C123.58,28,127,30.76,127,36.69Z"/><path class="cls-3" d="M150.14,39.43H133.8c.46,3.53,3.31,5.89,7.3,5.89a7.5,7.5,0,0,0,5.81-2.44l2,2.36a10.12,10.12,0,0,1-8,3.27c-6.49,0-10.82-4.3-10.82-10.3A9.86,9.86,0,0,1,140.26,28c5.82,0,10,4.18,10,10.38A11,11,0,0,1,150.14,39.43ZM133.8,36.81h12.92a6.5,6.5,0,0,0-12.92,0Z"/><path class="cls-3" d="M151.51,38.21C151.51,32.21,156,28,162,28s10.45,4.26,10.45,10.26A10,10,0,0,1,162,48.51C156,48.51,151.51,44.21,151.51,38.21Zm17.25,0c0-4.29-2.89-7.07-6.76-7.07s-6.8,2.78-6.8,7.07,2.92,7.11,6.8,7.11S168.76,42.5,168.76,38.21Z"/><path class="cls-3" d="M195.25,47.1a6.89,6.89,0,0,1-4.41,1.41c-4.07,0-6.38-2.24-6.38-6.31V31.14H181v-3h3.42v-4.4h3.64v4.4h5.78v3H188.1V42.05c0,2.16,1.14,3.38,3.16,3.38a4.59,4.59,0,0,0,2.85-1Z"/><path class="cls-3" d="M213.71,36.12V48.28h-3.45V45.62c-1.22,1.82-3.46,2.89-6.61,2.89-4.56,0-7.45-2.43-7.45-5.93,0-3.23,2.09-5.89,8.09-5.89h5.78V36c0-3.08-1.79-4.86-5.4-4.86a10.18,10.18,0,0,0-6.38,2.16l-1.52-2.73A13.42,13.42,0,0,1,205.09,28C210.6,28,213.71,30.61,213.71,36.12Zm-3.64,6V39.31h-5.63c-3.61,0-4.63,1.41-4.63,3.12,0,2,1.67,3.27,4.44,3.27A5.86,5.86,0,0,0,210.07,42.12Z"/><path class="cls-3" d="M237.69,36.69V48.28H234V37.11c0-4-2-5.89-5.43-5.89-3.87,0-6.38,2.32-6.38,6.69V48.28h-3.65V28.14h3.5v3c1.48-2.05,4.06-3.23,7.25-3.23C234.23,28,237.69,30.76,237.69,36.69Z"/></g></g></g></g></g></g></svg>